# xmcd CD database file
# Copyright (C) 1997 Ti Kan
# 
# Track frame offsets:
#     150
#     25052
#     53775
#     63165
#     85335
#     120330
#     133657
#     158925
#     183710
#     192775
#     239485
# 
# Disc length: 3510 seconds
# 
# Revision: 1
# Processed by: cddbd v1.4b41PL1 Copyright (c) Steve Scherf et al.
# Submitted via: DiscPlay 4.0.3
# 
DISCID=900db40b
DTITLE=Legendary Pink Dots - 9 Lives To Wonder
DYEAR=1900
DGENRE=
TTITLE0=Madame Guillotine
TTITLE1=On Another Shore
TTITLE2=Softly Softly
TTITLE3=Crumbs On The Carpet
TTITLE4=Hotel Z
TTITLE5=Oasis Malade
TTITLE6=A Crack In Melancholy Time
TTITLE7=Siren
TTITLE8=The Angel Trail
TTITLE9=Nine Shades To A Circle
TTITLE10=Terra Firma Welcome
EXTD=
EXTT0=
EXTT1=
EXTT2=
EXTT3=
EXTT4=
EXTT5=
EXTT6=
EXTT7=
EXTT8=
EXTT9=
EXTT10=
PLAYORDER=
